<?xml version="1.0" standalone="no"?>
<!DOCTYPE svg PUBLIC "-//W3C//DTD SVG 1.1//EN" "http://www.w3.org/Graphics/SVG/1.1/DTD/svg11.dtd" >
<svg xmlns="http://www.w3.org/2000/svg" xmlns:svg="http://www.w3.org/2000/svg" xmlns:xlink="http://www.w3.org/1999/xlink" viewBox="0 0 1024 1024"><path d="M415.2 438.47Q385.08 177.42 393.1 128.7L402.7 145.28Q397.74 143.71 387.94 138Q395.47 134.27 442.82 161.38Q484.06 133.97 527.22 132.52Q592.9 147.1 604.58 133.13Q620.94 148.97 648 140.74Q654.45 153.21 654.8 128.56Q661.97 142.07 676.86 162.87Q649.5 227.47 673.31 227.87Q638.23 300.72 652.82 417.75Q663.28 595.12 626.54 639.1Q652.41 685.83 678.9 690.97Q639.56 716.47 650.47 714.12Q610.25 713.99 583.48 713.1Q526.1 717.61 517.45 715.67Q448.82 745.01 454.45 710.85Q398.57 723.4 374.7 717.36Q391.29 701.58 384.92 545.49Q404.35 489.89 390.09 439.5ZM772.42 847.81Q811.03 822.12 820.3 833.05Q868.5 844.34 831.52 833.65Q859.06 842.37 868.8 831.12Q855.66 861.84 904.78 832.57Q884.09 842.07 854.95 737.62Q895.51 641.68 890.48 524.72Q883.85 371.56 890.21 303.14Q884.82 259.44 901.93 213.75Q900.46 161.36 896.77 160.28Q903.66 157.51 892.87 122.73Q909.6 168.89 928.17 144.56Q935.97 170.71 948.14 168.84L963.16 162.92L976.25 544.87Q969.11 697.43 949.47 810.81Q951.57 917.83 969.4 913.19Q970.1 936.27 949.3 944.6Q964.28 944.36 944.53 939.9Q876.13 958.43 847.25 951.91Q823.83 919.43 818.95 883.56Q789.94 885.38 778.21 878.67Q795.87 887.16 824.88 847.38ZM711.3 347.19Q728.14 279.68 709.81 223.86Q732.48 170.61 718.49 170.67Q731.22 167.04 733.5 149.45Q723.37 166.44 722.46 155.31Q753.84 155.72 752.06 151.69Q756.73 139.26 757.26 153.13Q730.86 157.47 770.85 159.59Q785.69 153.37 784.77 227.09Q756.91 240.13 785.95 347.1Q785.49 437.04 790.8 481.31Q787.65 501.07 763.94 524.64Q789.27 547.14 768.32 549.12Q746.71 560.29 760.91 564.85Q729.81 530.6 735.6 560.29Q714.53 568.95 709 483.78Q710.38 440.31 712.28 349.05ZM126.86 850.48Q167.08 791.94 217.24 784.73Q236.01 757.77 257.25 777.66Q265.09 764.64 264.23 761.07Q274.86 790.56 271.29 792.21Q283.07 795.59 308.9 809.43Q308.05 805.73 319.83 811.56Q289.15 834.79 232.84 866.64Q242.03 863.38 225.1 870.36Q202.88 885.11 185.59 904.12Q171.86 936.96 177.22 918.51Q144.49 922.34 139.98 910.32Q123.6 928.81 127.76 917.32Q102.32 933.4 95.1 884.23Q126.86 884.07 112.71 845.09ZM463.84 656.9H583.05L585.85 588.53Q560.76 589.7 592.31 567.71Q584.79 558.78 587.72 555.83Q602.48 535.96 585.32 537.81Q591.84 544.18 599.13 516.78Q584.31 526.27 567.8 539.46Q570.03 523.32 523.36 526.82Q520.92 522.42 494.34 512.98Q471.17 501.58 498.34 526.72Q469.09 520.82 446.91 550.21Q447.9 583.93 465.1 577.73ZM108.81 153.48Q95.81 111.39 125.37 126.32Q139.46 126.14 143.6 121.21Q160.91 122.31 140.62 122.48Q183.05 122.49 207.11 141.19Q234.29 132.14 233.66 137.59Q254.45 140.93 262.65 153.11Q322.51 195.52 321.61 175.12Q330.29 190.45 340.44 167.49Q318.34 211.73 281.53 197.83L299.06 230.46L211.03 210.69Q193.05 199.71 152.71 203.84Q109.11 180.96 121.12 173.32Q107.69 161.39 124.54 151.04Q119.01 175.21 123.54 147.79ZM502.05 295.45H592.09L600.12 247.5V214.2Q565.12 201.35 613.68 197.06Q593.64 195.5 574.3 177.58Q599.66 227.86 551.84 175.36Q515.62 194.15 524.42 194.96L493.48 205.52V274.09ZM119.33 382.79Q103.77 359.05 109.95 326.76Q132.15 346.83 113.45 340.95Q122.65 340.77 166.92 361.9Q156.37 334.65 173.12 343.89Q175.84 344.13 219.29 346.83Q264.39 362.87 271.04 376.43Q284.61 362.51 278.44 366.13Q303.93 396.22 278.68 394.01Q285.22 434.05 269.33 424.81Q242.53 437.07 243.63 436.08Q208.78 434.95 180.67 448.3Q184.48 437.42 166.13 419.45L110.62 388.19ZM414.18 832.99Q430.7 791.53 404.78 746.83Q433.71 781.79 446.47 769.41Q475.54 791.23 433.32 765.6Q472.4 763.97 452.82 805.84Q472.83 825.85 446.34 877.43Q437.71 907.07 414.09 939.02Q403.29 940.82 402.22 924.27Q380.58 960.96 380.02 926.79Q357.18 922.51 373.26 917.21Q362.94 913.39 385.52 833.72ZM537.61 765.38Q555.75 745.34 559.29 757.52Q532.64 763.45 566.59 724.3Q569.26 769.75 596.29 732.82Q595.96 770.79 633.61 784.98Q662.11 852.02 667.03 866.79Q671.21 891.87 656.63 901.55Q641.93 906.74 634.99 901.78Q656.35 909.65 614.85 865.93Q589.17 878.69 601.57 846.56Q537.29 821.88 557.97 802.62Q548.66 793.71 531.53 813Q526.05 763.01 541.96 746.77ZM478.18 381.71L454.3 459.27L534.67 446.55Q552.46 433.71 570.95 447.7Q609.83 446.55 575.32 458.76Q598.71 444.9 589.79 435.6Q590.45 429.34 596.7 404.68L587.99 360.24L555.6 347.01Q549.49 363.07 511.68 366.8Q484.38 348.56 489.42 370.89Z" fill="black"></path></svg>