<?xml version="1.0" standalone="no"?>
<!DOCTYPE svg PUBLIC "-//W3C//DTD SVG 1.1//EN" "http://www.w3.org/Graphics/SVG/1.1/DTD/svg11.dtd" >
<svg xmlns="http://www.w3.org/2000/svg" xmlns:svg="http://www.w3.org/2000/svg" xmlns:xlink="http://www.w3.org/1999/xlink" viewBox="0 0 1024 1024"><path d="M371.0 418.5Q372.0 188.5 377.0 138.5L381.0 124.5Q382.0 118.5 384.0 116.5Q386.0 114.5 420.0 113.5Q454.0 112.5 505.0 112.5Q573.0 114.5 601.0 116.5Q629.0 118.5 634.0 125.5Q634.0 125.5 635.0 125.5Q643.0 125.5 643.5 156.5Q644.0 187.5 644.0 218.5Q644.0 279.5 643.0 399.5Q640.0 561.5 637.0 618.0Q634.0 674.5 629.0 679.5Q625.0 690.5 608.5 693.0Q592.0 695.5 557.0 695.5Q533.0 695.5 499.0 694.5Q433.0 694.5 405.0 692.5Q377.0 690.5 373.0 687.5Q371.0 658.5 371.0 521.5Q371.0 476.5 371.0 418.5ZM782.0 827.5Q791.0 810.5 813.0 810.5Q823.0 810.5 836.0 814.5Q847.0 818.5 854.0 821.0Q861.0 823.5 865.0 823.5Q865.0 820.5 866.0 726.0Q867.0 631.5 867.0 490.5Q866.0 367.5 866.0 292.5Q866.0 237.5 867.0 190.5Q868.0 143.5 874.0 139.5Q883.0 127.5 891.5 126.5Q900.0 125.5 903.0 125.5Q916.0 125.5 930.0 134.5L944.0 145.5L942.0 519.5Q942.0 678.5 939.5 788.0Q937.0 897.5 937.0 908.5Q933.0 919.5 927.0 922.0Q921.0 924.5 899.0 924.5Q876.0 922.5 846.0 912.0Q816.0 901.5 798.0 883.5Q778.0 862.5 778.0 844.5Q778.0 835.5 782.0 827.5ZM690.0 336.5Q690.0 258.5 692.0 205.5Q694.0 152.5 696.0 147.5Q697.0 143.5 701.0 141.0Q705.0 138.5 710.0 136.5Q720.0 132.5 728.0 131.5Q730.0 132.5 736.0 133.5Q742.0 134.5 751.0 143.5Q759.0 147.5 761.5 185.0Q764.0 222.5 766.0 336.5Q768.0 416.5 768.0 458.5Q768.0 479.5 767.0 502.5Q766.0 525.5 759.0 528.5Q746.0 539.5 729.0 539.5Q712.0 539.5 701.0 528.5Q694.0 526.5 692.0 489.0Q690.0 451.5 690.0 336.5ZM115.0 830.5Q148.0 802.5 197.0 773.5Q226.0 757.5 234.0 756.5Q242.0 755.5 244.0 755.5Q255.0 755.5 267.0 764.5Q282.0 774.5 282.0 786.5Q282.0 792.5 275.5 805.5Q269.0 818.5 229.0 840.5Q220.0 845.5 203.0 857.0Q186.0 868.5 168.0 881.5Q152.0 892.5 138.5 900.5Q125.0 908.5 120.0 908.5Q107.0 908.5 94.5 897.0Q82.0 885.5 80.0 874.5Q82.0 859.5 115.0 830.5ZM444.0 624.5H566.0L568.0 579.5Q568.0 561.5 569.0 545.0Q570.0 528.5 571.0 523.5Q572.0 520.5 572.0 518.5Q572.0 513.5 568.0 510.5Q564.0 507.5 550.0 505.5Q529.0 500.5 500.0 500.5Q495.0 500.5 474.5 501.0Q454.0 501.5 447.0 507.5Q447.0 508.5 446.0 526.0Q445.0 543.5 444.0 566.5ZM101.0 134.5Q102.0 121.5 107.0 111.5Q114.0 100.5 127.0 100.0Q140.0 99.5 142.0 99.5Q164.0 99.5 186.0 107.5Q195.0 112.5 214.0 120.0Q233.0 127.5 251.0 134.5Q294.0 150.5 300.5 161.5Q307.0 172.5 307.0 178.5Q307.0 191.5 292.0 206.5L276.0 220.5L193.0 192.5Q159.0 179.5 134.0 169.5Q109.0 159.5 105.0 156.5Q101.0 148.5 101.0 138.5Q101.0 136.5 101.0 134.5ZM508.0 276.5H573.0L575.0 229.5V193.5Q575.0 179.5 573.0 177.5Q571.0 175.5 558.5 175.0Q546.0 174.5 539.0 174.5Q525.0 174.5 507.0 175.5L444.0 177.5V278.5ZM91.0 355.5Q91.0 345.5 94.5 336.5Q98.0 327.5 102.0 325.5Q107.0 321.5 122.0 320.5Q127.0 321.5 141.5 322.5Q156.0 323.5 202.0 334.5Q246.0 343.5 254.0 349.0Q262.0 354.5 262.0 365.5Q262.0 367.5 262.0 370.5Q262.0 388.5 246.5 402.0Q231.0 415.5 211.0 417.5Q204.0 415.5 184.5 411.0Q165.0 406.5 143.0 399.5L91.0 381.5ZM366.0 821.5Q391.0 766.5 404.0 753.5Q415.0 747.5 425.0 747.5Q433.0 747.5 444.5 754.0Q456.0 760.5 456.0 784.5Q454.0 805.5 429.0 856.0Q404.0 906.5 390.0 919.5Q387.0 920.5 384.0 920.5Q374.0 920.5 359.5 913.5Q345.0 906.5 341.0 894.5Q341.0 876.5 366.0 821.5ZM523.0 744.5Q535.0 735.5 539.0 735.0Q543.0 734.5 544.0 734.5Q551.0 734.5 562.0 741.5Q584.0 755.5 613.0 794.0Q642.0 832.5 645.0 854.5Q643.0 867.5 635.0 878.0Q627.0 888.5 616.0 888.5Q611.0 888.5 594.0 874.0Q577.0 859.5 557.0 838.5Q517.0 798.5 512.5 785.5Q508.0 772.5 508.0 767.5Q508.0 754.5 523.0 744.5ZM444.0 352.5 447.0 426.5 507.0 427.5Q532.0 427.5 549.0 427.0Q566.0 426.5 566.0 424.5Q568.0 422.5 569.0 410.0Q570.0 397.5 571.0 382.5L575.0 345.5L534.0 346.5Q516.0 346.5 497.0 347.5Q478.0 348.5 467.0 350.5Z" fill="black"></path></svg>